<?xml version="1.0" encoding="UTF-8"?> <svg xmlns="http://www.w3.org/2000/svg" id="Layer_2" data-name="Layer 2" viewBox="0 0 354 74.83"><defs><style> .cls-1 { fill: #f47636; } .cls-1, .cls-2 { fill-rule: evenodd; } .cls-3 { fill: #5f6e73; } .cls-4, .cls-2 { fill: #231f20; } </style></defs><g id="Logos"><g><polygon class="cls-4" points="99.52 53.2 113.62 22.27 127.57 53.2 108.99 53.14 110.35 50.23 122.7 50.23 113.62 29.74 103.19 53.2 99.52 53.2"></polygon><polygon class="cls-4" points="136.66 53.2 133.15 53.2 133.15 21.91 139.01 21.91 151.86 50.24 151.86 21.91 155.37 21.91 155.37 53.2 149.42 53.2 136.66 24.82 136.66 53.2"></polygon><polygon class="cls-4" points="161.23 53.2 175.33 22.27 189.28 53.2 170.69 53.14 172.05 50.23 184.41 50.23 175.33 29.74 164.9 53.2 161.23 53.2"></polygon><polygon class="cls-4" points="198.25 53.2 194.96 53.2 197.18 23.83 202.83 23.83 208.74 40.65 214.79 23.83 220.53 23.83 222.75 53.2 219.46 53.2 217.24 26.27 208.74 48.91 200.47 26.51 198.25 53.2"></polygon><path class="cls-4" d="M229.97,23.83h24.51v2.97h-21.22v23.44h21.22v2.96h-24.51v-29.37ZM251.88,40.21h-16.23v-2.96h16.23v2.96Z"></path><polygon class="cls-4" points="258.77 23.83 283.95 23.83 283.95 26.79 272.99 26.79 272.99 53.2 269.69 53.2 269.69 26.79 258.77 26.79 258.77 23.83"></polygon><path class="cls-4" d="M304.21,53.2l-6.94-15.34h4.52c.75,0,1.4-.17,1.93-.52.53-.35.98-.79,1.34-1.32.36-.53.62-1.11.77-1.74.16-.63.24-1.22.24-1.79,0-.63-.1-1.28-.31-1.95-.2-.67-.49-1.29-.87-1.83-.37-.55-.84-1-1.39-1.37-.55-.36-1.17-.54-1.86-.54h-9.73v26.4h-3.29v-29.37h13.64c.97,0,1.9.23,2.78.68.88.45,1.65,1.07,2.31,1.83.66.77,1.18,1.69,1.58,2.75.39,1.07.59,2.21.59,3.44,0,1.1-.19,2.14-.56,3.13-.38.99-.89,1.86-1.53,2.63-.64.77-1.39,1.38-2.26,1.83-.86.46-1.78.68-2.75.68l5.75,12.38h-3.94Z"></path><rect class="cls-4" x="316.47" y="23.83" width="3.34" height="29.37"></rect><path class="cls-2" d="M353.9,46.63c-1.34,2.11-3.18,3.72-5.38,4.93-2.13,1.18-4.58,1.84-7.18,1.84-8.22,0-14.9-6.68-14.9-14.9s6.68-14.9,14.9-14.9c5.34,0,10.03,2.82,12.66,7.05,0,0-1.65,3.65-1.67,3.61-1.75-4.23-6.03-7.43-10.89-7.43-6.44,0-11.67,5.23-11.67,11.67s5.23,11.67,11.67,11.67c4.85,0,9.05-3,10.81-7.22l1.65,3.68Z"></path><polygon class="cls-3" points="51.24 22.52 43.04 40.33 34.94 22.5 31.78 29.49 43 54.21 51.19 36.42 59.24 54.22 62.4 47.21 51.24 22.52"></polygon><path class="cls-1" d="M9.48,31.4c0-2.61-2.12-4.74-4.74-4.74S0,28.79,0,31.4s2.12,4.74,4.74,4.74,4.74-2.12,4.74-4.74Z"></path><path class="cls-3" d="M38.12,0C24.05,0,11.55,7.47,5.1,18.98c.3-.06.61-.09.93-.09,1.88,0,3.48,1.1,4.25,2.68,5.48-9.58,16-15.8,27.84-15.8,17.39,0,31.53,14.15,31.53,31.53s-14.13,31.76-31.5,31.76c-9.72,0-19.29-4.52-24.87-11.63l9.39-20.68,5.05,11.17h-4.26l-2.61,5.77h15.8l-13.97-30.92L6.66,58.07l.92,1.34c6.53,9.51,18.25,15.42,30.57,15.42,20.55,0,37.27-16.84,37.27-37.53S58.68,0,38.12,0Z"></path></g></g></svg> 